<svg width="24" height="24" viewBox="0 0 24 24" fill="none" xmlns="http://www.w3.org/2000/svg">
<path d="M9.12988 7.83911V14.1901L13.2764 16.7301V10.3801L9.12988 7.83911Z" stroke="#1A00FF" stroke-width="0.5" stroke-linecap="round" stroke-linejoin="round"/>
<path d="M5.93995 4.34491C5.93995 3.39241 6.89645 3.39241 7.53495 3.70991L15.509 8.15641C16.7845 8.79141 16.7845 9.10891 16.7845 11.0144V20.5414C16.7845 21.4944 15.8275 22.1294 14.871 21.4944L6.57745 16.4129C5.93945 16.0954 5.93945 15.4604 5.93945 14.5079L5.93995 4.34491Z" stroke="#1A00FF" stroke-width="0.5" stroke-linecap="round" stroke-linejoin="round"/>
<path d="M10.4775 8.66504V13.2375L13.276 14.872" stroke="#1A00FF" stroke-width="0.5" stroke-linecap="round" stroke-linejoin="round"/>
<path d="M7.21558 3.58639V3.07489C7.21558 2.12239 8.17258 2.12239 8.81058 2.43989L16.7846 6.88589C18.0606 7.52089 18.0606 7.83839 18.0606 9.74389V19.2714C18.0606 20.0169 17.4741 20.5684 16.7606 20.4679" stroke="#1A00FF" stroke-width="0.5" stroke-linecap="round" stroke-linejoin="round"/>
</svg>
